<?xml version="1.0" standalone="no"?>
<!DOCTYPE svg PUBLIC "-//W3C//DTD SVG 20010904//EN"
 "http://www.w3.org/TR/2001/REC-SVG-20010904/DTD/svg10.dtd">
<svg version="1.0" xmlns="http://www.w3.org/2000/svg"
 width="1059.000000pt" height="352.000000pt" viewBox="0 0 1059.000000 352.000000"
 preserveAspectRatio="xMidYMid meet">

<g transform="translate(0.000000,352.000000) scale(0.100000,-0.100000)"
fill="#000000" stroke="none">
<path d="M175 3353 c22 -51 27 -329 21 -1178 -6 -842 -14 -1296 -32 -1780 -6
-163 -5 -188 7 -179 15 13 212 84 519 189 223 77 298 113 356 172 39 39 114
167 114 193 0 23 -83 4 -215 -50 -209 -85 -409 -150 -417 -137 -4 7 -8 276 -8
599 l0 586 38 -4 c249 -26 288 -39 324 -112 21 -43 23 -63 26 -228 4 -198 -4
-255 -42 -279 -25 -17 -100 -31 -208 -41 l-68 -6 0 -199 c0 -136 3 -199 11
-199 22 0 178 42 281 76 118 39 181 76 232 136 85 98 99 181 94 542 -3 239 -3
241 -30 291 -31 60 -100 127 -163 157 -25 12 -45 24 -44 27 0 4 24 24 52 47
66 51 122 125 144 189 16 44 18 93 18 415 l0 365 -32 60 c-104 200 -239 257
-797 340 -201 30 -190 29 -181 8z m476 -442 c130 -24 183 -45 212 -85 21 -29
22 -42 25 -252 2 -122 -1 -254 -7 -294 -9 -64 -14 -77 -48 -112 -46 -47 -105
-67 -225 -75 l-88 -6 0 422 c0 344 2 421 13 421 8 0 60 -9 118 -19z"/>
<path d="M10165 3359 c-386 -59 -528 -90 -632 -138 -119 -56 -212 -170 -244
-301 -10 -39 -14 -127 -14 -310 0 -228 2 -259 18 -288 29 -53 157 -181 369
-369 222 -198 264 -245 274 -309 8 -56 1 -1080 -8 -1089 -10 -10 -266 79 -434
150 -84 36 -159 65 -167 65 -8 0 -20 7 -27 15 -18 22 -30 9 -21 -23 30 -104
168 -242 297 -297 160 -68 657 -245 688 -245 19 0 19 8 13 243 -4 133 -12 442
-17 687 -6 245 -15 478 -20 518 -13 111 -62 173 -284 365 -190 164 -343 313
-373 364 -24 42 -25 46 -21 221 3 203 9 221 81 252 55 24 264 67 274 56 4 -4
10 -142 13 -307 4 -219 8 -302 17 -307 7 -4 41 -14 75 -21 35 -7 98 -21 140
-31 l78 -17 5 31 c3 17 6 271 8 564 2 468 0 532 -13 531 -8 -1 -42 -5 -75 -10z"/>
<path d="M1363 3152 c22 -24 52 -29 287 -42 1082 -61 1513 -70 3280 -73 2239
-3 2945 9 3865 69 248 16 309 24 329 44 8 10 -44 11 -239 6 -137 -4 -416 -11
-620 -16 -967 -25 -3180 -41 -4195 -31 -821 8 -2194 38 -2595 57 -130 6 -130
6 -112 -14z"/>
<path d="M1661 2840 c-60 -13 -145 -65 -192 -119 -75 -84 -74 -76 -74 -781 0
-729 -2 -710 81 -799 87 -94 190 -126 330 -102 164 29 252 110 302 274 12 42
16 133 19 492 2 242 0 522 -5 621 -8 172 -10 185 -37 239 -38 73 -111 140
-177 160 -65 19 -191 27 -247 15z m177 -290 l42 -19 0 -128 c0 -70 3 -313 7
-539 l6 -411 -22 -36 c-27 -43 -74 -61 -143 -55 -33 4 -57 13 -71 27 l-22 22
0 547 c0 502 1 550 17 574 27 41 116 50 186 18z"/>
<path d="M2300 2846 c0 -3 8 -20 19 -38 16 -29 19 -63 24 -272 4 -132 3 -305
0 -385 -6 -136 -8 -146 -30 -167 l-24 -22 26 -19 26 -19 2 -361 c1 -355 0
-361 -22 -398 -12 -21 -20 -40 -17 -42 8 -8 435 57 495 76 76 24 133 69 162
128 20 42 23 67 30 292 17 543 8 927 -24 1004 -31 73 -129 156 -209 177 -18 5
-109 16 -203 25 -93 8 -189 18 -212 20 -24 3 -43 3 -43 1z m387 -301 c92 -27
88 -2 88 -530 0 -345 -3 -467 -12 -488 -14 -31 -55 -52 -124 -62 l-47 -7 -7
104 c-3 56 -5 300 -3 541 4 508 -4 474 105 442z"/>
<path d="M3104 2808 c41 -63 227 -690 230 -778 1 -30 8 -65 15 -78 9 -17 12
-106 13 -341 l1 -319 -28 -47 -28 -48 108 6 c60 4 137 7 172 7 l64 0 -18 33
c-16 29 -18 70 -21 403 l-3 370 56 195 c70 243 151 492 177 542 11 22 18 40
16 42 -4 4 -308 12 -308 8 0 -2 5 -12 12 -23 10 -15 8 -38 -10 -117 -32 -143
-72 -267 -82 -257 -11 11 -95 301 -105 360 l-6 42 -82 6 c-45 4 -106 9 -136
13 l-53 6 16 -25z"/>
<path d="M8304 2821 c-2 -2 10 -20 26 -40 l30 -36 0 -393 0 -393 -25 -23 c-32
-30 -31 -39 5 -69 l30 -26 0 -347 0 -348 -36 -38 c-43 -44 -54 -38 123 -63 61
-9 126 -20 145 -25 52 -15 71 -13 63 8 -21 48 -35 143 -46 291 l-11 164 44 38
c23 21 48 38 53 39 10 0 155 -527 155 -563 0 -9 8 -21 19 -26 23 -13 263 -62
270 -56 2 3 -3 21 -12 40 -23 47 -47 148 -107 437 -28 137 -57 266 -65 288
l-14 41 39 43 c46 50 85 129 101 205 7 36 10 149 7 330 -4 260 -5 279 -26 326
-29 63 -92 129 -157 163 -50 26 -52 26 -328 32 -153 3 -280 3 -283 1z m452
-262 c60 -12 92 -40 105 -96 13 -53 13 -397 -1 -436 -6 -18 -22 -40 -35 -50
-26 -18 -138 -47 -187 -47 l-28 0 0 326 0 325 48 -6 c26 -4 70 -11 98 -16z"/>
<path d="M6985 2803 c29 -72 29 -183 0 -280 l-13 -43 120 7 121 6 -5 -601 -5
-600 -25 -51 -25 -51 31 -4 c17 -3 67 -8 111 -11 44 -3 105 -8 136 -11 l57 -6
-21 58 c-20 57 -21 83 -25 668 l-4 608 112 -7 113 -7 -7 25 c-7 30 -22 143
-31 238 l-6 66 -241 6 c-381 11 -401 10 -393 -10z"/>
<path d="M7702 2813 c-22 -4 -23 -6 -7 -23 29 -32 36 -138 33 -469 l-3 -322
-25 -19 -25 -19 22 -20 c12 -12 25 -36 28 -53 3 -18 5 -180 3 -360 l-3 -326
-25 -27 c-32 -34 -17 -45 65 -45 33 0 98 -5 145 -10 47 -6 126 -15 175 -20 50
-6 105 -13 124 -17 l34 -6 -7 104 c-4 57 -9 129 -13 160 l-5 56 -92 12 c-50 7
-106 15 -123 18 l-33 5 0 193 c0 106 3 200 6 209 5 13 23 16 91 16 l86 0 -5
141 c-5 168 -6 169 -110 169 l-68 0 0 175 0 176 48 -5 c26 -3 79 -8 118 -11
l71 -6 7 62 c3 34 6 109 6 165 l0 104 -247 -1 c-137 -1 -258 -4 -271 -6z"/>
<path d="M6417 2803 c-4 -3 10 -21 31 -38 l37 -33 0 -335 0 -335 -24 -26 -23
-25 23 -33 c23 -32 24 -42 27 -233 2 -110 1 -255 -3 -323 -6 -105 -10 -127
-30 -157 l-24 -34 32 -5 c50 -8 281 -23 289 -19 4 2 0 19 -8 38 -15 37 -29
223 -38 518 l-5 167 109 0 110 0 0 140 c0 105 -3 140 -12 141 -65 3 -180 18
-186 23 -4 4 -9 68 -10 142 l-4 134 97 0 c131 0 135 3 135 93 0 40 -3 102 -7
140 l-6 67 -252 0 c-138 0 -255 -3 -258 -7z"/>
<path d="M5810 2794 c0 -3 5 -15 11 -26 18 -34 12 -104 -36 -429 -141 -962
-155 -1039 -196 -1070 l-22 -16 24 -6 c13 -4 86 -7 162 -7 l137 0 -7 27 c-5
16 -7 90 -7 167 1 105 5 141 15 147 18 11 191 1 203 -11 6 -6 12 -81 14 -168
3 -101 8 -160 16 -164 6 -4 69 -8 140 -8 118 0 128 1 121 18 -42 96 -43 100
-160 857 -24 160 -59 381 -77 493 l-32 202 -153 0 c-84 0 -153 -3 -153 -6z
m215 -773 c31 -184 31 -181 -43 -181 -28 0 -45 5 -48 14 -3 8 2 63 10 123 29
190 38 237 46 222 4 -8 20 -88 35 -178z"/>
<path d="M4804 2761 c24 -25 28 -40 36 -122 12 -115 12 -506 1 -573 -5 -27
-15 -53 -24 -58 -14 -8 -14 -12 4 -42 18 -31 19 -53 19 -323 1 -160 -3 -299
-6 -309 -4 -10 -16 -31 -26 -46 -10 -14 -18 -31 -18 -37 0 -8 48 -11 151 -11
140 0 151 1 144 18 -12 25 -24 248 -17 319 4 51 10 67 33 89 16 15 32 25 35
21 3 -3 35 -101 70 -218 35 -116 65 -213 67 -215 2 -2 56 -7 120 -10 135 -8
134 -9 97 86 -11 28 -40 132 -65 232 -25 99 -52 196 -60 215 -17 39 -16 40 38
106 71 85 80 124 85 357 5 227 -6 331 -40 392 -29 51 -100 105 -162 124 -48
14 -290 33 -440 34 l-70 0 28 -29z m436 -260 c45 -32 50 -55 50 -231 0 -146
-2 -169 -20 -197 -25 -42 -70 -64 -142 -70 l-58 -6 -1 129 c-1 71 -3 192 -5
270 l-3 140 77 -8 c48 -5 86 -15 102 -27z"/>
<path d="M4305 2757 c-55 -26 -113 -85 -144 -144 -28 -56 -41 -141 -42 -277
-1 -185 -12 -292 -34 -316 -18 -20 -18 -21 6 -46 24 -25 24 -29 30 -277 6
-284 9 -297 85 -373 76 -77 211 -105 332 -69 70 21 107 55 121 109 6 25 11
121 11 214 l0 169 -37 7 c-21 3 -63 6 -94 6 l-57 0 -4 -110 c-4 -126 -13 -144
-74 -142 -21 1 -42 6 -47 11 -19 19 -26 164 -27 558 l0 413 26 16 c28 19 91
21 108 4 6 -6 12 -66 14 -140 l4 -130 83 0 c65 0 86 4 96 17 18 21 18 308 0
370 -13 48 -63 102 -119 129 -23 11 -66 20 -112 22 -63 2 -83 -1 -125 -21z"/>
<path d="M9423 1621 c-114 -47 -141 -65 -154 -98 -10 -28 4 -307 22 -421 22
-143 93 -255 196 -309 49 -26 344 -133 366 -133 4 0 7 90 7 200 l0 199 -37 6
c-111 18 -182 45 -215 81 -30 34 -40 97 -44 284 -6 213 -8 230 -32 230 -9 0
-59 -18 -109 -39z"/>
<path d="M3745 983 c-164 -6 -737 -44 -940 -62 l-200 -18 110 -2 c170 -3 765
1 810 6 109 11 2628 14 3070 4 1069 -26 1326 -26 1070 0 -128 13 -583 48 -715
55 -63 3 -128 8 -145 11 -34 6 -2920 12 -3060 6z"/>
</g>
</svg>
